grf
version=1
nRows=14
nColumns=37
inDegrees=no
endheader
time	ground_force_1_vx	ground_force_1_vy	ground_force_1_vz	ground_force_1_px	ground_force_1_py	ground_force_1_pz	ground_moment_1_mx	ground_moment_1_my	ground_moment_1_mz	ground_force_2_vx	ground_force_2_vy	ground_force_2_vz	ground_force_2_px	ground_force_2_py	ground_force_2_pz	ground_moment_2_mx	ground_moment_2_my	ground_moment_2_mz	ground_force_3_vx	ground_force_3_vy	ground_force_3_vz	ground_force_3_px	ground_force_3_py	ground_force_3_pz	ground_moment_3_mx	ground_moment_3_my	ground_moment_3_mz	ground_force_4_vx	ground_force_4_vy	ground_force_4_vz	ground_force_4_px	ground_force_4_py	ground_force_4_pz	ground_moment_4_mx	ground_moment_4_my	ground_moment_4_mz
      3.57000000	      0.00000000	     -0.00000000	      0.00000000	      0.00000000	      0.00000000	      0.00000000	      0.00000000	      0.00000000	      0.00000000	    -10.46202183	      7.19263554	   -355.65222168	   -303.70298057	  -1085.12160413	      0.00000000	      0.00000000	      0.00000000	   8418.95196792	     -0.40574559	     -2.95299121	   -361.32617188	   -290.67751281	   -747.80442138	      0.00000000	      0.00000000	     -0.00000000	  -7005.84253773	      0.00000000	     -0.00000000	      0.00000000	      0.00000000	      0.00000000	      0.00000000	      0.00000000	      0.00000000	      0.00000000
      3.58000000	      0.00000000	     -0.00000000	      0.00000000	      0.00000000	      0.00000000	      0.00000000	      0.00000000	      0.00000000	      0.00000000	    -11.34347439	      7.67546082	   -352.72488403	   -304.83467881	  -1084.44740156	      0.00000000	     -0.00000000	      0.00000000	   8476.85179080	     -1.86173083	     -2.89040120	   -360.97021484	   -290.40826145	   -747.29993713	      0.00000000	     -0.00000000	     -0.00000000	  -6883.58093246	      0.00000000	     -0.00000000	      0.00000000	      0.00000000	      0.00000000	      0.00000000	      0.00000000	      0.00000000	      0.00000000
      3.59000000	      0.00000000	     -0.00000000	      0.00000000	      0.00000000	      0.00000000	      0.00000000	      0.00000000	      0.00000000	      0.00000000	    -12.97310352	      7.44712353	   -351.96258545	   -305.40336683	  -1085.30501088	      0.00000000	      0.00000000	      0.00000000	   8228.52281574	     -3.14413712	     -2.48488327	   -359.77386475	   -290.41276111	   -746.54675949	      0.00000000	     -0.00000000	     -0.00000000	  -6733.63544043	      0.00000000	     -0.00000000	      0.00000000	      0.00000000	      0.00000000	      0.00000000	      0.00000000	      0.00000000	      0.00000000
      3.60000000	      0.00000000	     -0.00000000	      0.00000000	      0.00000000	      0.00000000	      0.00000000	      0.00000000	      0.00000000	      0.00000000	    -14.17015648	      7.58764029	   -350.41119385	   -305.67888451	  -1085.29182965	      0.00000000	      0.00000000	      0.00000000	   8268.28720008	     -3.87761515	     -1.95694341	   -356.69445801	   -290.33009727	   -746.56349465	      0.00000000	      0.00000000	     -0.00000000	  -6771.83180441	      0.00000000	     -0.00000000	      0.00000000	      0.00000000	      0.00000000	      0.00000000	      0.00000000	      0.00000000	      0.00000000
      3.61000000	      0.00000000	     -0.00000000	      0.00000000	      0.00000000	      0.00000000	      0.00000000	      0.00000000	      0.00000000	      0.00000000	    -15.24041843	      7.37510681	   -350.04632568	   -305.79369221	  -1084.57847760	      0.00000000	      0.00000000	      0.00000000	   8189.67685977	     -4.71320644	     -1.70107991	   -355.88674927	   -290.97657151	   -747.29763629	      0.00000000	      0.00000000	     -0.00000000	  -6825.21044941	      0.00000000	     -0.00000000	      0.00000000	      0.00000000	      0.00000000	      0.00000000	      0.00000000	      0.00000000	      0.00000000
      3.62000000	      0.00000000	     -0.00000000	      0.00000000	      0.00000000	      0.00000000	      0.00000000	      0.00000000	      0.00000000	      0.00000000	    -16.35154915	      8.12949371	   -349.69223022	   -306.68742071	  -1085.25915768	      0.00000000	      0.00000000	      0.00000000	   8092.68269753	     -5.03071221	     -0.97153810	   -355.13168335	   -291.70475221	   -747.62844115	      0.00000000	      0.00000000	     -0.00000000	  -6867.52109820	      0.00000000	     -0.00000000	      0.00000000	      0.00000000	      0.00000000	      0.00000000	      0.00000000	      0.00000000	      0.00000000
      3.63000000	      0.00000000	     -0.00000000	      0.00000000	      0.00000000	      0.00000000	      0.00000000	      0.00000000	      0.00000000	      0.00000000	    -16.63018417	      8.27820015	   -351.08749390	   -307.68173665	  -1084.72042208	      0.00000000	      0.00000000	      0.00000000	   8170.20510916	     -5.37438349	     -0.48205999	   -354.22897339	   -292.60654179	   -747.64059415	      0.00000000	      0.00000000	     -0.00000000	  -6986.01605769	      0.00000000	     -0.00000000	      0.00000000	      0.00000000	      0.00000000	      0.00000000	      0.00000000	      0.00000000	      0.00000000
      3.64000000	      0.00000000	     -0.00000000	      0.00000000	      0.00000000	      0.00000000	      0.00000000	      0.00000000	      0.00000000	      0.00000000	    -15.86874199	      8.60879230	   -352.72320557	   -308.76161534	  -1085.03202102	      0.00000000	      0.00000000	      0.00000000	   8326.29988618	     -5.91768554	     -0.40493332	   -354.92593384	   -292.80079204	   -747.05361435	      0.00000000	      0.00000000	     -0.00000000	  -6828.75203070	      0.00000000	     -0.00000000	      0.00000000	      0.00000000	      0.00000000	      0.00000000	      0.00000000	      0.00000000	      0.00000000
      3.65000000	      0.00000000	     -0.00000000	      0.00000000	      0.00000000	      0.00000000	      0.00000000	      0.00000000	      0.00000000	      0.00000000	    -14.73023987	      8.26291561	   -354.19787598	   -310.69439814	  -1082.50014561	      0.00000000	     -0.00000000	      0.00000000	   8174.08285272	     -5.17589378	      0.01063079	   -357.22412109	   -294.12890739	   -747.13834618	      0.00000000	      0.00000000	     -0.00000000	  -6965.53851296	      0.00000000	     -0.00000000	      0.00000000	      0.00000000	      0.00000000	      0.00000000	      0.00000000	      0.00000000	      0.00000000
      3.66000000	      0.00000000	     -0.00000000	      0.00000000	      0.00000000	      0.00000000	      0.00000000	      0.00000000	      0.00000000	      0.00000000	    -12.91487408	      7.37155199	   -358.95724487	   -313.87278401	  -1081.93733706	      0.00000000	      0.00000000	      0.00000000	   8353.87306919	     -4.18498088	     -0.15574046	   -360.20187378	   -295.59097064	   -748.05571408	      0.00000000	      0.00000000	     -0.00000000	  -6933.52862418	      0.00000000	     -0.00000000	      0.00000000	      0.00000000	      0.00000000	      0.00000000	      0.00000000	      0.00000000	      0.00000000
      3.67000000	      0.00000000	     -0.00000000	      0.00000000	      0.00000000	      0.00000000	      0.00000000	      0.00000000	      0.00000000	      0.00000000	     -9.74022675	      6.64216471	   -367.66033936	   -316.65469815	  -1081.31868171	      0.00000000	      0.00000000	      0.00000000	   8486.56625436	     -2.30183227	     -0.75864074	   -367.28540039	   -296.62644749	   -748.33109686	      0.00000000	     -0.00000000	     -0.00000000	  -6915.30041219	      0.00000000	     -0.00000000	      0.00000000	      0.00000000	      0.00000000	      0.00000000	      0.00000000	      0.00000000	      0.00000000
      3.68000000	      0.00000000	     -0.00000000	      0.00000000	      0.00000000	      0.00000000	      0.00000000	      0.00000000	      0.00000000	      0.00000000	     -5.97710419	      6.20282793	   -376.07113647	   -320.39692126	  -1081.40350321	      0.00000000	     -0.00000000	      0.00000000	   8735.64251656	      1.14108719	     -1.17428098	   -376.03631592	   -297.58470909	   -747.79666142	      0.00000000	      0.00000000	     -0.00000000	  -7244.81703427	      0.00000000	     -0.00000000	      0.00000000	      0.00000000	      0.00000000	      0.00000000	      0.00000000	      0.00000000	      0.00000000
      3.69000000	      0.00000000	     -0.00000000	      0.00000000	      0.00000000	      0.00000000	      0.00000000	      0.00000000	      0.00000000	      0.00000000	     -2.36278629	      5.93556833	   -388.57470703	   -323.64711781	  -1082.56571555	      0.00000000	      0.00000000	      0.00000000	   8883.02811075	      4.20889508	     -1.44914044	   -388.12744141	   -299.49055082	   -746.18384551	      0.00000000	      0.00000000	     -0.00000000	  -7089.24444321	      0.00000000	     -0.00000000	      0.00000000	      0.00000000	      0.00000000	      0.00000000	      0.00000000	      0.00000000	      0.00000000
      3.70000000	      0.00000000	     -0.00000000	      0.00000000	      0.00000000	      0.00000000	      0.00000000	      0.00000000	      0.00000000	      0.00000000	      2.22441411	      5.70434570	   -402.88021851	   -327.48978073	  -1082.33296737	      0.00000000	      0.00000000	      0.00000000	   9176.97798998	      8.95271292	     -1.10529823	   -398.27825928	   -301.58617405	   -747.73428735	      0.00000000	      0.00000000	     -0.00000000	  -7249.45174063	      0.00000000	     -0.00000000	      0.00000000	      0.00000000	      0.00000000	      0.00000000	      0.00000000	      0.00000000	      0.00000000
